<svg xmlns="http://www.w3.org/2000/svg" viewBox="0 0 104.33 97.66">
  <defs>
    <style>
      .cls-1 {
        fill: #70c5ef;
      }

      .cls-1, .cls-2 {
        fill-rule: evenodd;
      }

      .cls-2 {
        fill: #b3e3fa;
      }
    </style>
  </defs>
  <title>Logo</title>
  <g id="Layer_2" data-name="Layer 2">
    <g id="Layer_1-2" data-name="Layer 1">
      <path class="cls-1" d="M57.17,83.13c9.6-26.42,14.67-65.52,47.16-72.49-2.41,15-8.41,40.09-11.51,56-19,8.14-32.42,21.48-39,31,0-39.83-3.77-87.6,24.25-97.66,1.7.84,4.07,1.81,5.59,2.39C58.8,12.33,56.64,56,55.5,83.13Z"/>
      <path class="cls-2" d="M53.83,97.66c.72-4.49,1-9.49,1.67-14.53,4-32,11.35-70.23,33.92-78.18C91,5.51,95,7.16,96.33,7.58,73,15.68,62.05,57.26,57.17,83.13c-1.11,5.92-2.42,11.05-3.34,14.53"/>
      <path class="cls-1" d="M47.16,83.13C37.56,56.71,32.49,17.61,0,10.64c2.42,15,8.41,40.09,11.51,56,19.06,8.14,32.43,21.48,39,31,0-39.83,3.77-87.6-24.26-97.66-1.7.84-4.07,1.81-5.59,2.39,24.87,9.94,27,53.61,28.17,80.74Z"/>
      <path class="cls-2" d="M50.51,97.66c-.73-4.49-1-9.49-1.68-14.53C44.78,51.1,37.18,12.9,14.61,5,13,5.51,9,7.16,7.7,7.58c23.38,8.1,34.58,49.68,39.46,75.55,1.12,5.92,2.42,11.05,3.35,14.53"/>
    </g>
  </g>
</svg>
