<svg xmlns="http://www.w3.org/2000/svg" viewBox="0 0 52.29 46.7">
  <defs>
    <style>
      .cls-1 {
        fill: #e0f0fb;
      }

      .cls-2 {
        fill: #d5e6f7;
      }
    </style>
  </defs>
  <title>quotes</title>
  <g id="Layer_2" data-name="Layer 2">
    <g id="Layer_1-2" data-name="Layer 1">
      <g>
        <path class="cls-1" d="M33.37,29.66A16.69,16.69,0,0,1,0,29.66c0-.31,0-.61,0-.92A32.65,32.65,0,0,1,15.48,0l2.05,2a20.34,20.34,0,0,0-6.39,8.09,19.79,19.79,0,0,0-1.31,4.33,16.67,16.67,0,0,1,23.54,15.2Z"/>
        <path class="cls-2" d="M52.29,30a16.69,16.69,0,0,1-33.37,0c0-.31,0-.61,0-.92A32.65,32.65,0,0,1,34.4.36l2.05,2a20.34,20.34,0,0,0-6.39,8.09,19.79,19.79,0,0,0-1.31,4.33A16.67,16.67,0,0,1,52.29,30Z"/>
      </g>
    </g>
  </g>
</svg>
